 <svg
      className="absolute z-0 w-full h-full"
      viewBox="0 0 1920 1080"
      xmlns="http://www.w3.org/2000/svg"
    >
      <rect width="1920" height="1080" fill="#df6688" />
      <path
        d="M 0,1080 C 0,1080 0,180 0,180 C 95.43333333333334,174.98461538461538 190.86666666666667,169.96923076923076 284,171 C 377.1333333333333,172.03076923076924 467.9666666666668,179.1076923076923 595,183 C 722.0333333333332,186.8923076923077 885.2666666666664,187.60000000000002 993,175 C 1100.7333333333336,162.39999999999998 1152.9666666666667,136.4923076923077 1235,134 C 1317.0333333333333,131.5076923076923 1428.8666666666666,152.43076923076922 1548,164 C 1667.1333333333334,175.56923076923078 1793.5666666666666,177.7846153846154 1920,180 C 1920,180 1920,1080 1920,1080 Z"
        fill="#3d1051"
        opacity="0.09999999999999999"
      />
      <path
        d="M 0,1080 C 0,1080 0,360 0,360 C 86.86153846153846,314.66153846153844 173.72307692307692,269.3230769230769 277,296 C 380.2769230769231,322.6769230769231 499.96923076923076,421.36923076923074 606,425 C 712.0307692307692,428.63076923076926 804.4000000000001,337.2 924,310 C 1043.6,282.8 1190.4307692307693,319.83076923076925 1293,331 C 1395.5692307692307,342.16923076923075 1453.876923076923,327.4769230769231 1551,328 C 1648.123076923077,328.5230769230769 1784.0615384615385,344.26153846153846 1920,360 C 1920,360 1920,1080 1920,1080 Z"
        fill="#3d1051"
        opacity="0.19999999999999998"
      />
      <path
        d="M 0,1080 C 0,1080 0,540 0,540 C 112.4666666666667,548.8128205128205 224.9333333333334,557.625641025641 317,548 C 409.0666666666666,538.374358974359 480.73333333333323,510.31025641025633 604,526 C 727.2666666666668,541.6897435897437 902.1333333333334,601.1333333333334 1013,605 C 1123.8666666666666,608.8666666666666 1170.7333333333333,557.1564102564101 1248,523 C 1325.2666666666667,488.84358974358986 1432.9333333333334,472.2410256410257 1550,478 C 1667.0666666666666,483.7589743589743 1793.5333333333333,511.8794871794871 1920,540 C 1920,540 1920,1080 1920,1080 Z"
        fill="#3d1051"
        opacity="0.3"
      />
      <path
        d="M 0,1080 C 0,1080 0,720 0,720 C 81.28205128205127,708.3205128205128 162.56410256410254,696.6410256410256 287,701 C 411.43589743589746,705.3589743589744 579.025641025641,725.7564102564102 678,736 C 776.974358974359,746.2435897435898 807.3333333333335,746.3333333333334 900,729 C 992.6666666666665,711.6666666666666 1147.6410256410256,676.9102564102564 1287,675 C 1426.3589743589744,673.0897435897436 1550.102564102564,704.0256410256411 1653,717 C 1755.897435897436,729.9743589743589 1837.948717948718,724.9871794871794 1920,720 C 1920,720 1920,1080 1920,1080 Z"
        fill="#3d1051"
        opacity="0.39999999999999997"
      />
      <path
        d="M 0,1080 C 0,1080 0,900 0,900 C 86.41025641025641,874.9435897435898 172.82051282051282,849.8871794871795 285,835 C 397.1794871794872,820.1128205128205 535.1282051282052,815.3948717948717 669,840 C 802.8717948717948,864.6051282051283 932.6666666666665,918.5333333333332 1014,922 C 1095.3333333333335,925.4666666666668 1128.2051282051284,878.471794871795 1222,869 C 1315.7948717948716,859.528205128205 1470.5128205128206,887.5794871794872 1597,899 C 1723.4871794871794,910.4205128205128 1821.7435897435898,905.2102564102564 1920,900 C 1920,900 1920,1080 1920,1080 Z"
        fill="#3d1051"
        opacity="0.49999999999999994"
      />
    </svg>